<svg xmlns="http://www.w3.org/2000/svg" id="Layer_1" viewBox="0 -3 70 80" class="style0"><style>.style0{enable-background:new 0 -3 70 80}</style><style>.st0{fill:#1673b6}.st1{fill:#35a9db}.st2{fill:#FFF}.st3{fill:#ebebeb}</style><path class="st0" d="M6.4 69L0-3h70l-6.4 71.9L35 77z"/><path class="st1" d="M35 70.8l23.2-6.4 5.4-61.6H35z"/><path class="st2" d="M35 28.9h11.6l.8-9H35v-8.8h22l-.2 2.3-2.2 24.4H35z"/><path class="st3" d="M35.1 51.9H35l-9.7-2.7-.7-7h-8.8L17.1 56 35 61.1h.1z"/><path class="st2" d="M45.9 37.4l-1.1 11.8-9.8 2.7v9.2L53 56l.1-1.4 1.5-17.2z"/><path class="st3" d="M35 11.1v8.8H13.9l-.2-2-.4-4.5-.2-2.3zM35 28.9v8.9h-9.6l-.2-2-.4-4.5-.2-2.4z"/></svg>