<?xml version="1.0" encoding="UTF-8" standalone="no"?>
<svg
   xmlns:dc="http://purl.org/dc/elements/1.1/"
   xmlns:cc="http://creativecommons.org/ns#"
   xmlns:rdf="http://www.w3.org/1999/02/22-rdf-syntax-ns#"
   xmlns:svg="http://www.w3.org/2000/svg"
   xmlns="http://www.w3.org/2000/svg"
   viewBox="0 0 456.875 456.875"
   height="456.875"
   width="456.875"
   xml:space="preserve"
   version="1.1"
   id="svg2"><metadata
     id="metadata8"><rdf:RDF><cc:Work
         rdf:about=""><dc:format>image/svg+xml</dc:format><dc:type
           rdf:resource="http://purl.org/dc/dcmitype/StillImage" /></cc:Work></rdf:RDF></metadata><defs
     id="defs6" /><g
     transform="matrix(1.25,0,0,-1.25,0,456.875)"
     id="g10"><g
       transform="scale(0.1,0.1)"
       id="g12"><path
         id="path14"
         style="fill:#4e367e;fill-opacity:1;fill-rule:nonzero;stroke:none"
         d="M 3655,609.172 C 3655,274.129 3380.87,0 3045.83,0 L 609.168,0 C 274.125,0 0,274.129 0,609.172 L 0,3045.83 C 0,3380.88 274.125,3655 609.168,3655 l 2436.662,0 c 335.04,0 609.17,-274.12 609.17,-609.17 l 0,-2436.658" /><path
         id="path16"
         style="fill:#ffffff;fill-opacity:1;fill-rule:nonzero;stroke:none"
         d="m 1366.44,1033.19 659.93,0 c 113.48,0 201.87,29.27 263.98,88.39 62.71,58.53 94.36,142.14 94.36,249.64 0,105.71 -31.06,186.34 -94.36,243.67 -63.31,57.33 -150.5,84.8 -263.98,84.8 l -659.93,0 0,-666.5 z m 0,934.66 609.17,0 c 89.58,0 164.24,25.08 223.96,76.44 59.72,51.36 89.58,124.22 89.58,219.78 0,107.5 -26.87,183.35 -80.62,226.94 -53.75,43.6 -131.39,65.7 -232.92,65.7 l -609.17,0 0,-588.86 z m -373.26,892.85 1036.18,0 c 191.11,0 344.6,-43.6 459.86,-131.4 115.27,-87.79 173.2,-219.77 173.2,-397.15 0,-107.5 -26.28,-199.47 -78.84,-275.91 -52.55,-76.45 -127.8,-136.17 -225.75,-177.98 l 0,-5.97 c 131.39,-28.07 231.13,-90.18 298.61,-186.33 67.49,-96.75 101.53,-217.39 101.53,-363.11 0,-83.61 -14.93,-161.85 -44.79,-234.11 -29.86,-72.87 -76.44,-135.568 -140.35,-188.131 -63.9,-52.55 -145.12,-94.359 -244.86,-125.418 -99.73,-31.05 -217.98,-46.582 -355.35,-46.582 l -979.44,0 0,2132.091" /></g></g></svg>