<?xml version="1.0" encoding="UTF-8" standalone="no"?>
<svg
   xmlns:dc="http://purl.org/dc/elements/1.1/"
   xmlns:cc="http://creativecommons.org/ns#"
   xmlns:rdf="http://www.w3.org/1999/02/22-rdf-syntax-ns#"
   xmlns:svg="http://www.w3.org/2000/svg"
   xmlns="http://www.w3.org/2000/svg"
   viewBox="0 0 277.72501 277.72501"
   height="277.72501"
   width="277.72501"
   xml:space="preserve"
   version="1.1"
   id="svg2"><metadata
     id="metadata8"><rdf:RDF><cc:Work
         rdf:about=""><dc:format>image/svg+xml</dc:format><dc:type
           rdf:resource="http://purl.org/dc/dcmitype/StillImage" /></cc:Work></rdf:RDF></metadata><defs
     id="defs6"><clipPath
       id="clipPath18"
       clipPathUnits="userSpaceOnUse"><path
         id="path20"
         d="M 0,6010.88 0,0 l 2221.76,0 0,6010.88 -2221.76,0 z" /></clipPath></defs><g
     transform="matrix(1.25,0,0,-1.25,0,751.3625)"
     id="g10"><g
       transform="scale(0.1,0.1)"
       id="g12"><g
         id="g14"><g
           clip-path="url(#clipPath18)"
           id="g16"><path
             id="path22"
             style="fill:#eee00c;fill-opacity:1;fill-rule:nonzero;stroke:none"
             d="m 0,3789.12 2221.76,0 0,2221.76 -2221.76,0 0,-2221.76 z" /><path
             id="path24"
             style="fill:#100f0d;fill-opacity:1;fill-rule:nonzero;stroke:none"
             d="m 754.941,4257.03 c 32.797,-58.19 62.633,-107.39 134.364,-107.39 68.59,0 111.865,26.84 111.865,131.19 l 0,709.91 208.77,0 0,-712.73 c 0,-216.18 -126.74,-314.57 -311.749,-314.57 -167.16,0 -263.964,86.51 -313.199,190.7 l 169.949,102.89 z m 737.519,18.09 c 44.75,-73.07 102.98,-126.78 205.95,-126.78 86.51,0 141.77,43.24 141.77,102.98 0,71.59 -56.78,96.94 -151.99,138.59 l -52.2,22.4 c -150.65,64.18 -250.74,144.59 -250.74,314.57 0,156.58 119.31,275.78 305.76,275.78 132.74,0 228.17,-46.2 296.94,-167.16 l -162.58,-104.39 c -35.79,64.18 -74.41,89.47 -134.36,89.47 -61.15,0 -99.91,-38.79 -99.91,-89.47 0,-62.63 38.79,-87.99 128.37,-126.78 l 52.19,-22.36 c 177.39,-76.07 277.54,-153.62 277.54,-327.97 0,-187.97 -147.65,-290.95 -345.96,-290.95 -193.89,0 -319.15,92.4 -380.45,213.5 l 169.67,98.57" /></g></g></g></g></svg>