<svg xmlns="http://www.w3.org/2000/svg" id="Layer_1" viewBox="0 -3 70 80" class="style0"><style>.style0{enable-background:new 0 -3 70 80}</style><style>.st0{fill:#e45126}.st1{fill:#f1682b}.st2{fill:#ebebeb}.st3{fill:#FFF}</style><path class="st0" d="M6.4 69L0-3h70l-6.4 71.9L35 77z"/><path class="st1" d="M35 70.8l23.2-6.4 5.4-61.6H35z"/><path class="st2" d="M35 29.5H23.4l-.8-9H35v-8.8H13l.2 2.3 2.2 24.4H35zM35 52.5l-9.8-2.7-.6-7h-8.8L17 56.7l18 5z"/><path class="st3" d="M35 29.5v8.9h10.8l-1.1 11.4-9.7 2.7v9.2l17.9-5 .2-1.5 2-23.3.2-2.4H53zM35 11.7v8.8h21.1l.2-2 .4-4.5.2-2.3z"/></svg>