<svg xmlns="http://www.w3.org/2000/svg" id="Layer_1" viewBox="0 -2.4 70 79.4" class="style0"><style>.style0{enable-background:new 0 -2.4 70 79.4}</style><style>.st0{fill:#e4a227}.st1{fill:#f0bf26}.st2{fill:#ebebeb}.st3{fill:#FFF}</style><path class="st0" d="M6.4 69L0-2.4h70L63.6 69 35 76.9z"/><path class="st1" d="M34.9 70.8l23.2-6.4 5.5-61H34.9z"/><path class="st2" d="M34.9 52.7L25.1 50l-.6-7h-8.8l1.2 13.8 18 5zM36.1 38.7v-8.8H25.3l1.3-13.8 9.5-.2V6.8H18.7l-.7 6.5-2 22.9-.3 2.5h2.4z"/><path class="st3" d="M36 15.9h.1l9.6.5.8 9h8.8L53.7 8.6 36.1 6.8H36z"/><path class="st3" d="M54.4 15.9l-.8-9.1H35.1v9.1h19.3M34.9 29.9v8.8h10.8l-1 11.3-9.8 2.7v9.1l18-5 .1-1.6 2.1-23 .2-2.3h-2.4z"/></svg>